<?xml version="1.0" standalone="no"?>
<!DOCTYPE svg PUBLIC "-//W3C//DTD SVG 20010904//EN"
 "http://www.w3.org/TR/2001/REC-SVG-20010904/DTD/svg10.dtd">
<svg version="1.0" xmlns="http://www.w3.org/2000/svg"
 width="300.000000pt" height="92.000000pt" viewBox="0 0 300.000000 92.000000"
 preserveAspectRatio="xMidYMid meet">

<g transform="translate(0.000000,92.000000) scale(0.100000,-0.100000)"
fill="#000000" stroke="none">
<path d="M2817 839 c-31 -26 -37 -36 -37 -70 0 -55 34 -89 89 -89 32 0 44 6
65 31 38 44 35 84 -10 125 -44 42 -59 42 -107 3z m109 -20 c45 -49 -4 -138
-69 -125 -40 8 -54 21 -62 57 -17 75 80 124 131 68z"/>
<path d="M2840 770 c0 -22 5 -40 11 -40 5 0 7 5 4 10 -9 14 18 12 34 -2 11
-11 13 -10 8 3 -3 9 -1 21 5 27 18 18 1 42 -32 42 -28 0 -30 -2 -30 -40z m51
15 c0 -5 -9 -11 -21 -13 -20 -3 -27 8 -13 22 10 9 34 3 34 -9z"/>
<path d="M600 834 c-87 -18 -182 -47 -315 -95 -60 -21 -117 -39 -127 -39 -10
0 -21 -7 -25 -16 -10 -27 29 -54 93 -64 74 -10 104 -22 128 -49 19 -21 18 -22
-22 -109 -55 -118 -58 -161 -17 -206 13 -14 32 -26 41 -26 14 0 15 8 10 53 -7
53 -5 57 68 199 42 80 76 155 76 167 0 18 -45 60 -54 50 -2 -2 -15 -27 -30
-56 l-26 -52 -36 24 c-20 14 -45 25 -55 25 -42 0 -14 19 84 57 239 95 508 127
557 68 7 -8 10 -22 6 -30 -8 -23 24 -32 39 -11 26 36 -17 89 -94 115 -46 15
-221 13 -301 -5z"/>
<path d="M1226 807 c-23 -23 -56 -73 -73 -109 -32 -66 -83 -224 -83 -257 0
-10 -10 -27 -22 -38 -103 -93 -206 -23 -153 104 21 50 43 73 72 73 27 0 30
-12 8 -30 -24 -20 -15 -54 14 -58 52 -8 70 71 25 107 -35 28 -78 26 -130 -4
-46 -27 -94 -96 -94 -134 0 -33 -16 -57 -54 -80 -47 -29 -90 -27 -115 5 -29
37 -26 44 14 44 51 0 94 26 111 65 20 49 18 63 -15 96 -36 35 -69 37 -122 7
-77 -43 -119 -146 -89 -219 15 -35 75 -68 125 -69 32 0 128 41 140 59 4 8 13
3 26 -13 20 -26 73 -46 119 -46 14 0 47 11 75 23 48 23 50 23 65 5 8 -10 28
-20 45 -21 29 -2 30 -1 37 57 9 72 43 143 81 170 21 15 30 17 39 8 9 -9 7 -26
-10 -74 -27 -78 -28 -98 -2 -131 30 -38 80 -44 131 -18 36 19 43 20 53 7 6 -9
26 -19 44 -22 31 -6 32 -5 32 27 0 64 32 150 70 190 60 63 80 46 49 -41 -25
-71 -25 -124 1 -150 40 -40 97 -38 149 6 l31 26 30 -26 c56 -46 137 -47 205 0
l37 25 25 -25 c43 -43 100 -45 152 -4 24 18 25 18 47 -3 32 -30 91 -35 131
-10 39 25 87 88 120 159 14 30 29 50 33 45 4 -4 10 -29 13 -56 l5 -48 -112
-106 c-61 -58 -104 -102 -96 -96 41 28 190 145 195 154 10 15 22 10 28 -10 6
-25 64 -61 96 -61 32 0 88 36 96 61 10 30 -1 34 -31 10 -33 -26 -39 -26 -64
-1 -32 32 -25 61 29 119 49 53 79 106 68 118 -4 3 -23 0 -43 -8 -31 -12 -39
-21 -51 -62 -16 -57 -33 -61 -33 -9 0 45 -23 82 -52 82 -38 0 -77 -32 -92 -76
-19 -56 -79 -149 -109 -169 -57 -37 -72 11 -36 117 25 74 22 98 -14 118 -26
14 -29 14 -41 -3 -12 -15 -31 -72 -64 -186 -4 -14 -21 -33 -39 -44 -26 -15
-36 -16 -54 -7 -19 11 -21 18 -16 59 3 25 15 76 27 113 19 63 22 67 53 70 42
4 52 38 12 38 -22 0 -26 3 -20 18 17 39 16 58 -4 76 -30 27 -54 16 -79 -38
-13 -27 -34 -58 -45 -67 -17 -14 -19 -21 -10 -27 10 -6 8 -28 -10 -99 -25 -98
-35 -116 -78 -139 -39 -20 -75 -18 -99 6 -33 33 -26 50 21 50 33 0 47 6 75 34
44 44 47 94 8 133 -66 66 -195 -21 -218 -149 -4 -23 -18 -46 -37 -62 -35 -30
-42 -31 -59 -11 -9 11 -7 31 13 97 22 74 23 86 11 110 -8 15 -26 31 -41 34
-28 7 -88 -10 -114 -32 -14 -12 -18 -11 -34 6 -42 46 -68 16 -102 -118 -11
-46 -24 -69 -46 -88 -65 -55 -82 -11 -41 106 27 76 27 78 10 105 -15 23 -23
26 -52 22 -19 -3 -34 -3 -34 -1 0 3 11 20 24 37 30 40 66 112 66 130 0 8 -9
26 -21 41 -33 43 -82 37 -133 -17z m114 -22 c0 -9 -9 -32 -19 -53 -25 -49
-111 -165 -117 -159 -7 7 52 145 82 190 25 38 54 50 54 22z m-633 -220 c8 -26
-76 -119 -94 -102 -10 11 7 55 33 87 25 29 54 37 61 15z m1303 0 c0 -30 -30
-75 -61 -91 -17 -8 -33 -13 -36 -11 -7 8 24 74 46 96 25 25 51 27 51 6z"/>
<path d="M2416 778 c-20 -29 -20 -72 -1 -88 36 -30 94 31 81 84 -8 34 -57 37
-80 4z"/>
<path d="M1130 223 c-30 -1 -149 -7 -265 -13 -345 -18 -627 -60 -680 -101 -29
-24 -36 -65 -7 -54 9 4 64 18 122 31 341 78 992 121 1663 111 295 -5 378 -4
374 6 -2 8 -42 14 -118 18 -112 6 -982 8 -1089 2z"/>
<path d="M2442 198 c4 -10 37 -13 139 -14 144 -2 121 7 -50 21 -76 5 -92 4
-89 -7z"/>
</g>
</svg>
